<mxfile host="Electron" modified="2023-09-11T11:41:44.572Z" agent="Mozilla/5.0 (X11; Linux x86_64) AppleWebKit/537.36 (KHTML, like Gecko) draw.io/21.3.7 Chrome/112.0.5615.204 Electron/24.5.0 Safari/537.36" etag="-EEXSsiJARYBoNWQxl4k" version="21.3.7" type="device">
  <diagram name="Page-1" id="03Qljzpe2Z63on2QoBqt">
    <mxGraphModel dx="2284" dy="843" grid="1" gridSize="10" guides="1" tooltips="1" connect="1" arrows="1" fold="1" page="1" pageScale="1" pageWidth="850" pageHeight="1100" math="0" shadow="0">
      <root>
        <mxCell id="0" />
        <mxCell id="1" parent="0" />
        <mxCell id="VMOZqtZ0lAoARXjnbu-Q-64" value="" style="rounded=0;whiteSpace=wrap;html=1;" vertex="1" parent="1">
          <mxGeometry x="30" y="150" width="210" height="850" as="geometry" />
        </mxCell>
        <mxCell id="VMOZqtZ0lAoARXjnbu-Q-31" value="" style="rounded=0;whiteSpace=wrap;html=1;" vertex="1" parent="1">
          <mxGeometry x="680" y="854" width="270" height="90" as="geometry" />
        </mxCell>
        <mxCell id="VMOZqtZ0lAoARXjnbu-Q-2" value="" style="rounded=0;whiteSpace=wrap;html=1;" vertex="1" parent="1">
          <mxGeometry x="240" y="150" width="960" height="510" as="geometry" />
        </mxCell>
        <mxCell id="VMOZqtZ0lAoARXjnbu-Q-3" value="" style="rounded=0;whiteSpace=wrap;html=1;" vertex="1" parent="1">
          <mxGeometry x="240" y="660" width="960" height="340" as="geometry" />
        </mxCell>
        <mxCell id="VMOZqtZ0lAoARXjnbu-Q-4" value="" style="rounded=0;whiteSpace=wrap;html=1;" vertex="1" parent="1">
          <mxGeometry x="990" y="210" width="190" height="200" as="geometry" />
        </mxCell>
        <mxCell id="VMOZqtZ0lAoARXjnbu-Q-5" value="Demo17( ) { }" style="rounded=0;whiteSpace=wrap;html=1;fillColor=#f8cecc;strokeColor=#b85450;fillStyle=hatch;" vertex="1" parent="1">
          <mxGeometry x="990" y="210" width="190" height="40" as="geometry" />
        </mxCell>
        <mxCell id="VMOZqtZ0lAoARXjnbu-Q-6" value="PSVM" style="ellipse;whiteSpace=wrap;html=1;fontSize=16;" vertex="1" parent="1">
          <mxGeometry x="1025" y="290" width="120" height="80" as="geometry" />
        </mxCell>
        <mxCell id="VMOZqtZ0lAoARXjnbu-Q-7" value="" style="rounded=0;whiteSpace=wrap;html=1;" vertex="1" parent="1">
          <mxGeometry x="750" y="205" width="210" height="400" as="geometry" />
        </mxCell>
        <mxCell id="VMOZqtZ0lAoARXjnbu-Q-8" value="" style="rounded=0;whiteSpace=wrap;html=1;" vertex="1" parent="1">
          <mxGeometry x="510" y="210" width="210" height="400" as="geometry" />
        </mxCell>
        <mxCell id="VMOZqtZ0lAoARXjnbu-Q-10" value="MyC Object class" style="rounded=0;whiteSpace=wrap;html=1;" vertex="1" parent="1">
          <mxGeometry x="750" y="580" width="210" height="30" as="geometry" />
        </mxCell>
        <mxCell id="VMOZqtZ0lAoARXjnbu-Q-11" value="MyB Object class" style="rounded=0;whiteSpace=wrap;html=1;" vertex="1" parent="1">
          <mxGeometry x="510" y="580" width="210" height="30" as="geometry" />
        </mxCell>
        <mxCell id="VMOZqtZ0lAoARXjnbu-Q-13" value="Dog( ) { }" style="rounded=0;whiteSpace=wrap;html=1;fillColor=#f8cecc;strokeColor=#b85450;fillStyle=hatch;" vertex="1" parent="1">
          <mxGeometry x="750" y="210" width="210" height="40" as="geometry" />
        </mxCell>
        <mxCell id="VMOZqtZ0lAoARXjnbu-Q-15" value="Animal( ) { }" style="rounded=0;whiteSpace=wrap;html=1;fillColor=#f8cecc;strokeColor=#b85450;fillStyle=hatch;" vertex="1" parent="1">
          <mxGeometry x="510" y="210" width="210" height="40" as="geometry" />
        </mxCell>
        <mxCell id="VMOZqtZ0lAoARXjnbu-Q-17" value="String name;" style="rounded=0;whiteSpace=wrap;html=1;fillStyle=hatch;fillColor=#f8cecc;strokeColor=#b85450;" vertex="1" parent="1">
          <mxGeometry x="510" y="250" width="210" height="40" as="geometry" />
        </mxCell>
        <mxCell id="VMOZqtZ0lAoARXjnbu-Q-18" style="edgeStyle=orthogonalEdgeStyle;rounded=0;orthogonalLoop=1;jettySize=auto;html=1;entryX=1;entryY=0.5;entryDx=0;entryDy=0;" edge="1" parent="1" source="VMOZqtZ0lAoARXjnbu-Q-19" target="VMOZqtZ0lAoARXjnbu-Q-21">
          <mxGeometry relative="1" as="geometry" />
        </mxCell>
        <mxCell id="VMOZqtZ0lAoARXjnbu-Q-19" value="0XA10" style="rounded=0;whiteSpace=wrap;html=1;fillColor=#ffe6cc;strokeColor=#d79b00;" vertex="1" parent="1">
          <mxGeometry x="990" y="180" width="140" height="30" as="geometry" />
        </mxCell>
        <mxCell id="VMOZqtZ0lAoARXjnbu-Q-20" style="edgeStyle=orthogonalEdgeStyle;rounded=0;orthogonalLoop=1;jettySize=auto;html=1;entryX=1;entryY=0.5;entryDx=0;entryDy=0;" edge="1" parent="1" source="VMOZqtZ0lAoARXjnbu-Q-21" target="VMOZqtZ0lAoARXjnbu-Q-23">
          <mxGeometry relative="1" as="geometry" />
        </mxCell>
        <mxCell id="VMOZqtZ0lAoARXjnbu-Q-21" value="0XA14" style="rounded=0;whiteSpace=wrap;html=1;fillColor=#ffe6cc;strokeColor=#d79b00;" vertex="1" parent="1">
          <mxGeometry x="750" y="180" width="140" height="30" as="geometry" />
        </mxCell>
        <mxCell id="VMOZqtZ0lAoARXjnbu-Q-23" value="0XA16" style="rounded=0;whiteSpace=wrap;html=1;fillColor=#ffe6cc;strokeColor=#d79b00;" vertex="1" parent="1">
          <mxGeometry x="510" y="180" width="140" height="30" as="geometry" />
        </mxCell>
        <mxCell id="VMOZqtZ0lAoARXjnbu-Q-25" value="" style="rounded=0;whiteSpace=wrap;html=1;strokeColor=#DB2354;strokeWidth=4;" vertex="1" parent="1">
          <mxGeometry x="30" y="960" width="210" height="40" as="geometry" />
        </mxCell>
        <mxCell id="VMOZqtZ0lAoARXjnbu-Q-26" value="Animal pet =&amp;nbsp;" style="rounded=0;whiteSpace=wrap;html=1;strokeColor=#DB2354;strokeWidth=4;" vertex="1" parent="1">
          <mxGeometry x="30" y="920" width="210" height="40" as="geometry" />
        </mxCell>
        <mxCell id="VMOZqtZ0lAoARXjnbu-Q-27" value="String [ ] args =&amp;nbsp;" style="rounded=0;whiteSpace=wrap;html=1;strokeColor=#DB2354;strokeWidth=4;" vertex="1" parent="1">
          <mxGeometry x="30" y="880" width="210" height="40" as="geometry" />
        </mxCell>
        <mxCell id="VMOZqtZ0lAoARXjnbu-Q-28" value="RCP = 0XA10" style="rounded=0;whiteSpace=wrap;html=1;strokeColor=#DB2354;strokeWidth=4;" vertex="1" parent="1">
          <mxGeometry x="30" y="840" width="210" height="40" as="geometry" />
        </mxCell>
        <mxCell id="VMOZqtZ0lAoARXjnbu-Q-29" value="" style="rounded=0;whiteSpace=wrap;html=1;" vertex="1" parent="1">
          <mxGeometry x="680" y="730" width="270" height="260" as="geometry" />
        </mxCell>
        <mxCell id="VMOZqtZ0lAoARXjnbu-Q-30" value="" style="rounded=0;whiteSpace=wrap;html=1;" vertex="1" parent="1">
          <mxGeometry x="680" y="720" width="270" height="120" as="geometry" />
        </mxCell>
        <mxCell id="VMOZqtZ0lAoARXjnbu-Q-32" value="" style="rounded=0;whiteSpace=wrap;html=1;" vertex="1" parent="1">
          <mxGeometry x="680" y="850" width="270" height="120" as="geometry" />
        </mxCell>
        <mxCell id="VMOZqtZ0lAoARXjnbu-Q-33" value="Animal( ){ }&amp;nbsp;" style="rounded=0;whiteSpace=wrap;html=1;fillColor=#d5e8d4;strokeColor=#82b366;" vertex="1" parent="1">
          <mxGeometry x="680" y="720" width="270" height="40" as="geometry" />
        </mxCell>
        <mxCell id="VMOZqtZ0lAoARXjnbu-Q-35" value="Dog( ){ }&amp;nbsp;" style="rounded=0;whiteSpace=wrap;html=1;fillColor=#d5e8d4;strokeColor=#82b366;" vertex="1" parent="1">
          <mxGeometry x="680" y="850" width="270" height="40" as="geometry" />
        </mxCell>
        <mxCell id="VMOZqtZ0lAoARXjnbu-Q-39" value="Dog( &quot;Boola&quot;) { }" style="rounded=0;whiteSpace=wrap;html=1;" vertex="1" parent="1">
          <mxGeometry x="-300" y="740" width="210" height="50" as="geometry" />
        </mxCell>
        <mxCell id="VMOZqtZ0lAoARXjnbu-Q-40" value="0XA10B" style="rounded=0;whiteSpace=wrap;html=1;fillColor=#ffe6cc;strokeColor=#d79b00;" vertex="1" parent="1">
          <mxGeometry x="680" y="690" width="140" height="30" as="geometry" />
        </mxCell>
        <mxCell id="VMOZqtZ0lAoARXjnbu-Q-41" style="edgeStyle=orthogonalEdgeStyle;rounded=0;orthogonalLoop=1;jettySize=auto;html=1;" edge="1" parent="1" source="VMOZqtZ0lAoARXjnbu-Q-43" target="VMOZqtZ0lAoARXjnbu-Q-40">
          <mxGeometry relative="1" as="geometry" />
        </mxCell>
        <mxCell id="VMOZqtZ0lAoARXjnbu-Q-42" value="" style="rounded=0;whiteSpace=wrap;html=1;" vertex="1" parent="1">
          <mxGeometry x="30" y="710" width="210" height="130" as="geometry" />
        </mxCell>
        <mxCell id="VMOZqtZ0lAoARXjnbu-Q-43" value="this = 0XA10B" style="rounded=0;whiteSpace=wrap;html=1;" vertex="1" parent="1">
          <mxGeometry x="30" y="710" width="210" height="50" as="geometry" />
        </mxCell>
        <mxCell id="VMOZqtZ0lAoARXjnbu-Q-44" value="this =&amp;nbsp;" style="rounded=0;whiteSpace=wrap;html=1;" vertex="1" parent="1">
          <mxGeometry x="30" y="580" width="210" height="50" as="geometry" />
        </mxCell>
        <mxCell id="VMOZqtZ0lAoARXjnbu-Q-45" value="" style="rounded=0;whiteSpace=wrap;html=1;" vertex="1" parent="1">
          <mxGeometry x="30" y="580" width="210" height="130" as="geometry" />
        </mxCell>
        <mxCell id="VMOZqtZ0lAoARXjnbu-Q-47" value="" style="rounded=0;whiteSpace=wrap;html=1;" vertex="1" parent="1">
          <mxGeometry x="30" y="560" width="210" height="130" as="geometry" />
        </mxCell>
        <mxCell id="VMOZqtZ0lAoARXjnbu-Q-48" style="edgeStyle=orthogonalEdgeStyle;rounded=0;orthogonalLoop=1;jettySize=auto;html=1;" edge="1" parent="1" source="VMOZqtZ0lAoARXjnbu-Q-49">
          <mxGeometry relative="1" as="geometry">
            <mxPoint x="280" y="740" as="targetPoint" />
          </mxGeometry>
        </mxCell>
        <mxCell id="VMOZqtZ0lAoARXjnbu-Q-65" style="edgeStyle=orthogonalEdgeStyle;rounded=0;orthogonalLoop=1;jettySize=auto;html=1;entryX=0;entryY=0.75;entryDx=0;entryDy=0;" edge="1" parent="1" source="VMOZqtZ0lAoARXjnbu-Q-49" target="VMOZqtZ0lAoARXjnbu-Q-26">
          <mxGeometry relative="1" as="geometry">
            <Array as="points">
              <mxPoint x="-50" y="580" />
              <mxPoint x="-50" y="950" />
            </Array>
          </mxGeometry>
        </mxCell>
        <mxCell id="VMOZqtZ0lAoARXjnbu-Q-49" value="this = 0XA10B" style="rounded=0;whiteSpace=wrap;html=1;" vertex="1" parent="1">
          <mxGeometry x="30" y="560" width="210" height="40" as="geometry" />
        </mxCell>
        <mxCell id="VMOZqtZ0lAoARXjnbu-Q-50" value="" style="rounded=0;whiteSpace=wrap;html=1;" vertex="1" parent="1">
          <mxGeometry x="30" y="320" width="210" height="130" as="geometry" />
        </mxCell>
        <mxCell id="VMOZqtZ0lAoARXjnbu-Q-52" value="this =&amp;nbsp;" style="rounded=0;whiteSpace=wrap;html=1;" vertex="1" parent="1">
          <mxGeometry x="30" y="320" width="210" height="40" as="geometry" />
        </mxCell>
        <mxCell id="VMOZqtZ0lAoARXjnbu-Q-53" value="String name;" style="rounded=0;whiteSpace=wrap;html=1;fillColor=#f8cecc;strokeColor=#b85450;fillStyle=hatch;" vertex="1" parent="1">
          <mxGeometry x="750" y="250" width="210" height="40" as="geometry" />
        </mxCell>
        <mxCell id="VMOZqtZ0lAoARXjnbu-Q-54" value="eat( ) : void" style="rounded=0;whiteSpace=wrap;html=1;fillColor=#f8cecc;strokeColor=#b85450;fillStyle=hatch;" vertex="1" parent="1">
          <mxGeometry x="750" y="290" width="210" height="40" as="geometry" />
        </mxCell>
        <mxCell id="VMOZqtZ0lAoARXjnbu-Q-56" value="eat( ) : void" style="rounded=0;whiteSpace=wrap;html=1;fillColor=#f8cecc;strokeColor=#b85450;fillStyle=hatch;" vertex="1" parent="1">
          <mxGeometry x="510" y="290" width="210" height="40" as="geometry" />
        </mxCell>
        <mxCell id="VMOZqtZ0lAoARXjnbu-Q-57" value="String name; null =&amp;gt; Animal" style="rounded=0;whiteSpace=wrap;html=1;fillStyle=solid;fillColor=#d5e8d4;strokeColor=#82b366;" vertex="1" parent="1">
          <mxGeometry x="680" y="760" width="270" height="40" as="geometry" />
        </mxCell>
        <mxCell id="VMOZqtZ0lAoARXjnbu-Q-58" value="eat( ) : void" style="rounded=0;whiteSpace=wrap;html=1;fillColor=#d5e8d4;strokeColor=#82b366;fillStyle=solid;" vertex="1" parent="1">
          <mxGeometry x="680" y="800" width="270" height="40" as="geometry" />
        </mxCell>
        <mxCell id="VMOZqtZ0lAoARXjnbu-Q-60" value="String name; null =&amp;gt; &quot;Boola&quot;" style="rounded=0;whiteSpace=wrap;html=1;fillColor=#d5e8d4;strokeColor=#82b366;fillStyle=solid;" vertex="1" parent="1">
          <mxGeometry x="680" y="890" width="270" height="40" as="geometry" />
        </mxCell>
        <mxCell id="VMOZqtZ0lAoARXjnbu-Q-61" value="eat( ) : void" style="rounded=0;whiteSpace=wrap;html=1;fillColor=#d5e8d4;strokeColor=#82b366;fillStyle=solid;" vertex="1" parent="1">
          <mxGeometry x="680" y="930" width="270" height="40" as="geometry" />
        </mxCell>
        <mxCell id="VMOZqtZ0lAoARXjnbu-Q-62" value="Animal( ){ }" style="rounded=0;whiteSpace=wrap;html=1;" vertex="1" parent="1">
          <mxGeometry x="-290" y="610" width="210" height="50" as="geometry" />
        </mxCell>
        <mxCell id="VMOZqtZ0lAoARXjnbu-Q-66" value="" style="curved=1;endArrow=classic;html=1;rounded=0;entryX=1;entryY=0.5;entryDx=0;entryDy=0;" edge="1" parent="1" target="VMOZqtZ0lAoARXjnbu-Q-33">
          <mxGeometry width="50" height="50" relative="1" as="geometry">
            <mxPoint x="950" y="870" as="sourcePoint" />
            <mxPoint x="1000" y="820" as="targetPoint" />
            <Array as="points">
              <mxPoint x="1000" y="870" />
              <mxPoint x="1030" y="780" />
            </Array>
          </mxGeometry>
        </mxCell>
        <mxCell id="VMOZqtZ0lAoARXjnbu-Q-68" value="" style="endArrow=classic;html=1;rounded=0;exitX=0.427;exitY=0.235;exitDx=0;exitDy=0;exitPerimeter=0;entryX=0.427;entryY=0.912;entryDx=0;entryDy=0;entryPerimeter=0;" edge="1" parent="1" source="VMOZqtZ0lAoARXjnbu-Q-3" target="VMOZqtZ0lAoARXjnbu-Q-3">
          <mxGeometry width="50" height="50" relative="1" as="geometry">
            <mxPoint x="540" y="800" as="sourcePoint" />
            <mxPoint x="590" y="750" as="targetPoint" />
          </mxGeometry>
        </mxCell>
      </root>
    </mxGraphModel>
  </diagram>
</mxfile>
